<svg xmlns="http://www.w3.org/2000/svg" viewBox="0 0 1998 321.8"><title>download_weiss</title><path data-name="heise_download" d="M389.7 65.7h11.4v76.9h.5a43 43 0 0 1 16.1-17 43.9 43.9 0 0 1 23.6-6.6c10.9 0 40.4 5.6 40.4 48.9v70.5h-11.5v-69.1c0-21.2-8.3-40.4-32.1-40.4-16.5 0-30.4 11.9-35.3 26.5a32.3 32.3 0 0 0-1.7 11.4v71.5h-11.4V65.7zm132.1 113.1c0 37.5 20.4 52.1 44.5 52.1 17 0 25.8-3.4 32.4-6.6l2.9 9.2c-4.4 2.4-16.3 7.5-36.7 7.5-33.6 0-54.5-24.6-54.5-58.9 0-38.9 22.4-63.2 52.5-63.2 38.2 0 45.5 36 45.5 52.8a28.9 28.9 0 0 1-.5 7.1h-86.1zm74.4-9.2c.2-16.3-6.6-41.1-34.8-41.1-25.8 0-37 23.1-38.9 41.1h73.7zm56.9-81.2c0 5.4-3.6 10-9.7 10s-9-4.6-9-10 4.1-10.2 9.5-10.2 9.2 4.5 9.2 10.1zM638 238.3V121.6h11.4v116.7H638zm46-15.3c6.3 3.9 15.8 8 26.3 8 18.5 0 27.2-10 27.2-22.1s-7.8-19.7-24.6-26.5c-19.2-7.3-29.7-17.8-29.7-31.9 0-16.8 13.1-31.6 36-31.6 10.7 0 19.7 3.2 25.8 7.3l-4.6 9.5c-3.9-2.9-11.4-7.1-23.1-7.1-14.8 0-22.6 9.5-22.6 20.2s8.3 17.5 24.1 24.1c19 7.3 30.2 16.8 30.2 34.5 0 19.9-15.6 33.6-39.4 33.6a56.7 56.7 0 0 1-29.7-8.3zm97.3-44.3c0 37.5 20.4 52.1 44.5 52.1 17 0 25.8-3.4 32.4-6.6l2.9 9.2c-4.4 2.4-16.3 7.5-36.7 7.5-33.6 0-54.5-24.6-54.5-58.9 0-38.9 22.4-63.2 52.5-63.2 38.2 0 45.5 36 45.5 52.8a28.9 28.9 0 0 1-.5 7.1h-86.1zm74.4-9.2c.2-16.3-6.6-41.1-34.8-41.1-25.8 0-37 23.1-38.9 41.1h73.7zm89.8-92.9c13.1-2.2 29.9-3.4 47.7-3.4 30.6 0 51.8 6.3 66.9 19s25.5 32.4 25.5 60.3-10 51.1-25.5 65.2-42.3 22.4-74.2 22.4a326.6 326.6 0 0 1-40.4-2.2V76.6zm29.9 138.9c4.1.7 10.5.7 16.5.7 38.9.2 62-21.2 62-62.8.2-36.2-20.7-56.9-58.1-56.9-9.5 0-16.3.7-20.4 1.7v117.3zM1223 178c0 43.5-30.6 63-60.8 63-33.6 0-59.3-23.1-59.3-61.1s25.5-62.8 61.3-62.8S1223 142 1223 178zm-89.3 1.2c0 22.9 11.2 40.1 29.4 40.1s28.9-16.8 28.9-40.6c0-18.5-8.3-39.6-28.7-39.6s-29.5 20.4-29.5 40.1zm129.9-59.3l12.4 53.8c2.7 12.7 5.4 25.5 7.5 38.4h.5c2.4-12.9 6.3-26 9.7-38.2l15.3-54h24.3l14.8 52.5c3.7 13.9 6.8 26.8 9.5 39.6h.5c1.9-12.9 4.6-25.8 7.8-39.6l13.1-52.5h29.4l-37.2 118.5h-27.7l-14.1-48.2a364.1 364.1 0 0 1-9-37.9h-.5a311.9 311.9 0 0 1-9 37.9l-14.9 48.1h-28l-35-118.5h30.6zm164.2 35.3c0-13.6-.2-25.1-1-35.3h26.3l1.5 17.8h.7c5.1-9.2 18-20.4 37.7-20.4s42.1 13.4 42.1 50.8v70.3h-29.9v-66.9c0-17-6.3-29.9-22.6-29.9-11.9 0-20.2 8.5-23.4 17.5a30.4 30.4 0 0 0-1.2 9.7v69.6h-30.2v-83.2zM1564 65.7h30.2v172.6H1564V65.7zM1739.2 178c0 43.5-30.6 63-60.8 63-33.6 0-59.3-23.1-59.3-61.1s25.5-62.8 61.3-62.8 58.8 24.9 58.8 60.9zm-89.3 1.2c0 22.9 11.2 40.1 29.4 40.1s28.9-16.8 28.9-40.6c0-18.5-8.3-39.6-28.7-39.6s-29.6 20.4-29.6 40.1zm205.8 30.6c0 10.7.5 21.2 1.7 28.5h-27l-1.9-13.1h-.7c-7.3 9.2-19.7 15.8-35 15.8-23.8 0-37.2-17.3-37.2-35.3 0-29.9 26.5-45 70.3-44.8V159c0-7.8-3.2-20.7-24.1-20.7-11.7 0-23.8 3.6-31.9 8.8l-5.8-19.5c8.8-5.4 24.1-10.5 42.8-10.5 37.9 0 48.9 24.1 48.9 49.9v42.8zm-29.2-29.4c-21.2-.5-41.3 4.1-41.3 22.1 0 11.7 7.5 17 17 17 11.9 0 20.7-7.8 23.4-16.3a21.5 21.5 0 0 0 1-6.6v-16.1zM1997 65.7V205c0 12.2.5 25.3 1 33.3h-26.8l-1.2-18.7h-.5c-7.1 13.1-21.4 21.4-38.7 21.4-28.2 0-50.6-24.1-50.6-60.6-.2-39.6 24.6-63.2 53-63.2 16.3 0 28 6.8 33.3 15.6h.5V65.7h30zm-29.9 103.6a42.2 42.2 0 0 0-.7-7.8c-2.7-11.7-12.2-21.2-25.8-21.2-19.2 0-29.9 17-29.9 39.2s10.7 37.5 29.7 37.5c12.2 0 22.9-8.3 25.8-21.2a33.3 33.3 0 0 0 1-8.8v-17.7zM267 215.6l-11.6-10c14.3-17.2 23.2-42.5 23.2-64.7 0-67.3-52.7-111.1-117.8-111.1-87.2 0-117.8 69-117.8 146 0 68 50.1 124.4 119.4 124.4 36.5 0 68.7-10.9 98.5-31.2a123.1 123.1 0 0 0 16.1-13.6l6.6 10c-27.9 34.2-75.3 56.4-119.4 56.4C74.3 321.8 0 256.4 0 164.2S68.3 0 162.5 0c78 0 142.6 49.1 142.6 131 .1 30.2-15.9 64-38.1 84.6zm-82.9-112.1L132 222.2c-4.3 10-10.9 21.6-23.6 21.6-9.3 0-16.3-6.6-16.3-15.9 0-7.3 3.6-13.9 6.3-20.2l56.5-128.8c4.3-9.6 9.6-16.9 20.9-16.9 9.3 0 15.9 6.6 15.9 15.9s-4 17.6-7.6 25.6zm41.5 72.3l-20.9 46.8c-4.6 10-11.3 21.2-23.9 21.2-9.3 0-15.9-6.6-15.9-15.9 0-7 3.3-13.6 6.3-19.9l25.2-56.7c4.3-9.3 9.6-16.9 20.9-16.9 9.3 0 15.9 6.6 15.9 15.9s-4 17.5-7.6 25.5z" fill="#fff"/></svg>